<svg width="1140" height="72" viewBox="0 0 1140 72" fill="none" xmlns="http://www.w3.org/2000/svg">
<line x1="30.5895" y1="36.6318" x2="1124.15" y2="36.6318" stroke="black"/>
<path d="M33.4023 65.2075L35.7804 60.5652C39.5569 53.1933 44.9819 46.7912 51.6341 41.8561V41.8561V41.8561C44.9628 36.3497 39.4871 29.5381 35.5431 21.8394L33.4022 17.6603V17.6603C25.4592 28.0292 14.8352 36.0321 2.67694 40.8052L0 41.8561L2.4339 42.7149C14.7197 47.0502 25.4795 54.8651 33.4023 65.2075V65.2075Z" fill="black"/>
<path d="M1106.6 65.2075L1104.22 60.5652C1100.44 53.1933 1095.02 46.7912 1088.37 41.8561V41.8561V41.8561C1095.04 36.3497 1100.51 29.5381 1104.46 21.8394L1106.6 17.6603V17.6603C1114.54 28.0292 1125.16 36.0321 1137.32 40.8052L1140 41.8561L1137.57 42.7149C1125.28 47.0502 1114.52 54.8651 1106.6 65.2075V65.2075Z" fill="black"/>
<path d="M578.03 72L581.395 66.741C589.283 54.4178 599.942 44.1095 612.522 36.6392V36.6392V36.6392C599.908 28.3056 589.179 17.421 581.029 4.68705L578.029 -1.07288e-06L577.426 1.08264C569.075 16.058 556.678 28.3801 541.652 36.6392V36.6392V36.6392C556.628 44.0382 569.003 55.8118 577.138 70.4009L578.03 72Z" fill="black"/>
<path d="M30.3729 39.6133C28.9922 39.6133 27.8729 40.7326 27.8729 42.1133C27.8729 43.494 28.9922 44.6133 30.3729 44.6133L30.3729 39.6133ZM30.3729 44.6133L1123.93 44.6133L1123.93 39.6133L30.3729 39.6133L30.3729 44.6133Z" fill="black"/>
</svg>
