<svg width="296" height="9" viewBox="0 0 296 9" fill="none" xmlns="http://www.w3.org/2000/svg">
<line x1="0.927734" y1="4.49533" x2="293.145" y2="4.49533" stroke="black"/>
<path d="M3.03469 7.52457L2.73175 7.01321C2.13905 6.01276 1.31507 5.16904 0.328934 4.55282V4.55282V4.55282C1.31852 3.86487 2.15326 2.97753 2.77955 1.94781L3.03469 1.52832L3.10881 1.66819C3.74639 2.87141 4.70957 3.87103 5.88831 4.55282V4.55282V4.55282C4.71463 5.16302 3.75875 6.12175 3.15204 7.29722L3.03469 7.52457Z" fill="black"/>
<path d="M293.052 7.47177L293.337 7.00262C293.942 6.00841 294.771 5.16945 295.757 4.5528V4.5528V4.5528C294.768 3.86484 293.933 2.9775 293.307 1.94778L293.052 1.52829L292.978 1.66816C292.34 2.87138 291.377 3.871 290.198 4.5528V4.5528V4.5528C291.373 5.16353 292.334 6.11715 292.954 7.28702L293.052 7.47177Z" fill="black"/>
<path d="M142.208 8.95764L142.585 8.43678C143.751 6.82473 145.275 5.50444 147.036 4.57918V4.57918V4.57918C145.27 3.54717 143.739 2.15825 142.54 0.50108L142.208 0.0424137V0.0424137C140.983 1.98483 139.24 3.54619 137.175 4.55019L137.115 4.57918V4.57918C139.213 5.49584 140.987 7.02119 142.208 8.95764V8.95764Z" fill="black"/>
</svg>
